<mxfile host="app.diagrams.net" modified="2025-09-05T00:00:00.000Z" agent="AI" version="24.7.0">
  <diagram id="tobe" name="To-Be">
    <mxGraphModel dx="1200" dy="800" grid="1" gridSize="10" guides="1" tooltips="1" connect="1" arrows="1" fold="1" page="1" pageScale="1" pageWidth="1100" pageHeight="850" math="0" shadow="0">
      <root>
        <mxCell id="0"/>
        <mxCell id="1" parent="0"/>

        <mxCell id="db" value="System A&#10;DB" style="shape=rectangle;whiteSpace=wrap;html=1;rounded=0;" vertex="1" parent="1">
          <mxGeometry x="40" y="200" width="140" height="60" as="geometry"/>
        </mxCell>

        <mxCell id="appC" value="Application C&#10;(ingest MT + MX)" style="shape=rectangle;whiteSpace=wrap;html=1;" vertex="1" parent="1">
          <mxGeometry x="260" y="200" width="200" height="60" as="geometry"/>
        </mxCell>

        <mxCell id="mq" value="Downstream A&#10;MQ Endpoint (MT)" style="shape=rectangle;whiteSpace=wrap;html=1;" vertex="1" parent="1">
          <mxGeometry x="540" y="140" width="220" height="60" as="geometry"/>
        </mxCell>

        <mxCell id="http" value="Downstream A&#10;HTTP Endpoint (MX)" style="shape=rectangle;whiteSpace=wrap;html=1;" vertex="1" parent="1">
          <mxGeometry x="540" y="260" width="220" height="60" as="geometry"/>
        </mxCell>

        <mxCell id="e1" value="pull MT &amp; MX alerts" style="endArrow=block;html=1;rounded=0;" edge="1" parent="1" source="db" target="appC">
          <mxGeometry relative="1" as="geometry"/>
        </mxCell>

        <mxCell id="e2" value="IBM MQ (MT)" style="endArrow=block;html=1;rounded=0;" edge="1" parent="1" source="appC" target="mq">
          <mxGeometry relative="1" as="geometry"/>
        </mxCell>

        <mxCell id="e3" value="HTTP (MX)" style="endArrow=block;html=1;rounded=0;" edge="1" parent="1" source="appC" target="http">
          <mxGeometry relative="1" as="geometry"/>
        </mxCell>
      </root>
    </mxGraphModel>
  </diagram>
</mxfile>

